<mxfile host="app.diagrams.net" agent="Mozilla/5.0 (Windows NT 10.0; Win64; x64) AppleWebKit/537.36 (KHTML, like Gecko) Chrome/131.0.0.0 Safari/537.36" version="25.0.1">
  <diagram name="Page-1" id="3VN_ZinDPW6W2a6NR9Ro">
    <mxGraphModel dx="1434" dy="772" grid="1" gridSize="10" guides="1" tooltips="1" connect="1" arrows="1" fold="1" page="1" pageScale="1" pageWidth="850" pageHeight="1100" math="0" shadow="0">
      <root>
        <mxCell id="0" />
        <mxCell id="1" parent="0" />
        <mxCell id="oOIKrNYex0ZvE3Omc3OE-1" value="&lt;b&gt;Root Task&lt;/b&gt;&lt;br&gt;&lt;br&gt;Merge L1 &amp;amp; L2" style="whiteSpace=wrap;html=1;rounded=1;shadow=1;labelBackgroundColor=none;strokeWidth=1;fontFamily=Verdana;fontSize=12;align=center;" vertex="1" parent="1">
          <mxGeometry x="700" y="290" width="120" height="60" as="geometry" />
        </mxCell>
        <mxCell id="oOIKrNYex0ZvE3Omc3OE-2" value="&lt;span&gt;&lt;b&gt;Merge Task&lt;/b&gt;&lt;br&gt;Level 1&lt;br&gt;Merge 1&amp;amp;2&lt;/span&gt;" style="whiteSpace=wrap;html=1;rounded=1;shadow=1;labelBackgroundColor=none;strokeWidth=1;fontFamily=Verdana;fontSize=12;align=center;" vertex="1" parent="1">
          <mxGeometry x="540" y="400" width="120" height="60" as="geometry" />
        </mxCell>
        <mxCell id="oOIKrNYex0ZvE3Omc3OE-3" value="&lt;span&gt;&lt;b&gt;Merge Task &lt;br&gt;&lt;/b&gt;Level 1&lt;br&gt;Pass On 3&lt;/span&gt;" style="whiteSpace=wrap;html=1;rounded=1;shadow=1;labelBackgroundColor=none;strokeWidth=1;fontFamily=Verdana;fontSize=12;align=center;" vertex="1" parent="1">
          <mxGeometry x="860" y="400" width="120" height="60" as="geometry" />
        </mxCell>
        <mxCell id="oOIKrNYex0ZvE3Omc3OE-4" value="" style="rounded=0;html=1;labelBackgroundColor=none;startArrow=none;startFill=0;startSize=5;endArrow=none;endFill=0;endSize=5;jettySize=auto;orthogonalLoop=1;strokeWidth=1;fontFamily=Verdana;fontSize=12" edge="1" parent="1" source="oOIKrNYex0ZvE3Omc3OE-1" target="oOIKrNYex0ZvE3Omc3OE-3">
          <mxGeometry x="-0.3002" y="13" relative="1" as="geometry">
            <mxPoint as="offset" />
          </mxGeometry>
        </mxCell>
        <mxCell id="oOIKrNYex0ZvE3Omc3OE-5" value="" style="rounded=0;html=1;labelBackgroundColor=none;startArrow=none;startFill=0;startSize=5;endArrow=none;endFill=0;endSize=5;jettySize=auto;orthogonalLoop=1;strokeWidth=1;fontFamily=Verdana;fontSize=12" edge="1" parent="1" source="oOIKrNYex0ZvE3Omc3OE-1" target="oOIKrNYex0ZvE3Omc3OE-2">
          <mxGeometry x="-0.359" y="-11" relative="1" as="geometry">
            <mxPoint as="offset" />
          </mxGeometry>
        </mxCell>
        <mxCell id="oOIKrNYex0ZvE3Omc3OE-6" value="&lt;span&gt;&lt;b&gt;Merge Sort &lt;/b&gt;&lt;br&gt;Bucket 1&lt;/span&gt;" style="whiteSpace=wrap;html=1;rounded=1;shadow=1;labelBackgroundColor=none;strokeWidth=1;fontFamily=Verdana;fontSize=12;align=center;" vertex="1" parent="1">
          <mxGeometry x="460" y="520" width="120" height="60" as="geometry" />
        </mxCell>
        <mxCell id="oOIKrNYex0ZvE3Omc3OE-7" value="&lt;span&gt;&lt;b&gt;Merge Sort&amp;nbsp;&lt;/b&gt;&lt;/span&gt;&lt;div&gt;&lt;span&gt;Bucket 2&lt;/span&gt;&lt;/div&gt;" style="whiteSpace=wrap;html=1;rounded=1;shadow=1;labelBackgroundColor=none;strokeWidth=1;fontFamily=Verdana;fontSize=12;align=center;" vertex="1" parent="1">
          <mxGeometry x="620" y="520" width="120" height="60" as="geometry" />
        </mxCell>
        <mxCell id="oOIKrNYex0ZvE3Omc3OE-8" value="&lt;span&gt;&lt;b&gt;Merge Sort &lt;/b&gt;&lt;br&gt;Bucket 3&lt;/span&gt;" style="whiteSpace=wrap;html=1;rounded=1;shadow=1;labelBackgroundColor=none;strokeWidth=1;fontFamily=Verdana;fontSize=12;align=center;" vertex="1" parent="1">
          <mxGeometry x="860" y="520" width="120" height="60" as="geometry" />
        </mxCell>
        <mxCell id="oOIKrNYex0ZvE3Omc3OE-10" value="" style="rounded=0;html=1;labelBackgroundColor=none;startArrow=none;startFill=0;startSize=5;endArrow=none;endFill=0;endSize=5;jettySize=auto;orthogonalLoop=1;strokeWidth=1;fontFamily=Verdana;fontSize=12" edge="1" parent="1" source="oOIKrNYex0ZvE3Omc3OE-2" target="oOIKrNYex0ZvE3Omc3OE-6">
          <mxGeometry x="-0.2" y="-14" relative="1" as="geometry">
            <mxPoint as="offset" />
          </mxGeometry>
        </mxCell>
        <mxCell id="oOIKrNYex0ZvE3Omc3OE-11" value="" style="rounded=0;html=1;labelBackgroundColor=none;startArrow=none;startFill=0;startSize=5;endArrow=none;endFill=0;endSize=5;jettySize=auto;orthogonalLoop=1;strokeWidth=1;fontFamily=Verdana;fontSize=12" edge="1" parent="1" source="oOIKrNYex0ZvE3Omc3OE-2" target="oOIKrNYex0ZvE3Omc3OE-7">
          <mxGeometry x="-0.2" y="14" relative="1" as="geometry">
            <mxPoint as="offset" />
          </mxGeometry>
        </mxCell>
        <mxCell id="oOIKrNYex0ZvE3Omc3OE-12" value="" style="rounded=0;html=1;labelBackgroundColor=none;startArrow=none;startFill=0;startSize=5;endArrow=none;endFill=0;endSize=5;jettySize=auto;orthogonalLoop=1;strokeWidth=1;fontFamily=Verdana;fontSize=12" edge="1" parent="1" source="oOIKrNYex0ZvE3Omc3OE-3" target="oOIKrNYex0ZvE3Omc3OE-8">
          <mxGeometry x="-0.2614" y="-13" relative="1" as="geometry">
            <mxPoint as="offset" />
          </mxGeometry>
        </mxCell>
      </root>
    </mxGraphModel>
  </diagram>
</mxfile>
